<?xml version="1.0" encoding="UTF-8" standalone="no"?>
<svg
   xmlns:dc="http://purl.org/dc/elements/1.1/"
   xmlns:cc="http://creativecommons.org/ns#"
   xmlns:rdf="http://www.w3.org/1999/02/22-rdf-syntax-ns#"
   xmlns:svg="http://www.w3.org/2000/svg"
   xmlns="http://www.w3.org/2000/svg"
   version="1.1"
   id="svg2"
   viewBox="0 0 425.50156 117.4222"
   height="117.4222"
   width="425.50156">
  <defs
     id="defs4" />
  <metadata
     id="metadata7">
    <rdf:RDF>
      <cc:Work
         rdf:about="">
        <dc:format>image/svg+xml</dc:format>
        <dc:type
           rdf:resource="http://purl.org/dc/dcmitype/StillImage" />
        <dc:title></dc:title>
      </cc:Work>
    </rdf:RDF>
  </metadata>
  <g
     transform="translate(-27.003188,-321.50826)"
     id="layer1">
    <g
       transform="matrix(1.2912937,0,0,1.3155682,73.795994,338.00158)"
       id="layer1-6">
      <circle
         style="fill:#00a0ff;fill-opacity:1;fill-rule:evenodd;stroke:#000000;stroke-width:0;stroke-linecap:butt;stroke-linejoin:round;stroke-miterlimit:4;stroke-dasharray:none;stroke-opacity:1"
         id="path3491"
         cx="31.90909"
         cy="32.090908"
         r="29.425379" />
      <path
         style="fill:none;fill-rule:evenodd;stroke:#000000;stroke-width:1px;stroke-linecap:butt;stroke-linejoin:miter;stroke-opacity:1"
         d="M 23.818182,10.181818 54.363636,28 l 0,7.454545 -30.727272,16.727273 -6.181819,-2.727273 0.181819,-35.272727 z"
         id="path4340" />
      <path
         style="fill:none;fill-rule:evenodd;stroke:#000000;stroke-width:1px;stroke-linecap:butt;stroke-linejoin:miter;stroke-opacity:1"
         d="M 17.714351,14.06952 41.818182,27.818182 30.181818,34.738302 30,42.181818 54.407753,27.977941"
         id="path4342" />
      <path
         style="fill:none;fill-rule:evenodd;stroke:#000000;stroke-width:1px;stroke-linecap:butt;stroke-linejoin:miter;stroke-opacity:1"
         d="m 23.688077,52.204173 0,-28.284271 12.40651,7.199633 -5.913984,3.728381 0.06428,-7.199633"
         id="path4352" />
      <path
         style="fill:#cccccc;fill-opacity:1;stroke-width:0;stroke-linejoin:round;stroke-miterlimit:4;stroke-dasharray:none"
         d="m 30.626298,38.54589 c 0.01876,-1.460565 0.06207,-2.829179 0.09624,-3.041365 0.07393,-0.459146 0.397185,-0.67044 7.326409,-4.788937 2.545585,-1.513009 4.672171,-2.793398 4.725748,-2.845309 0.05358,-0.05191 -5.310995,-3.178453 -11.921272,-6.947873 l -12.018684,-6.85349 2.466084,-1.596562 c 1.356346,-0.878109 2.530549,-1.58015 2.609339,-1.560091 0.313568,0.07983 29.23942,17.013335 29.211169,17.100534 -0.01666,0.05143 -5.063608,3.022041 -11.215437,6.601369 -6.151829,3.579328 -11.214071,6.525741 -11.249427,6.547584 -0.03535,0.02184 -0.04893,-1.155294 -0.03017,-2.61586 z"
         id="path4366" />
      <path
         style="fill:#808080;fill-opacity:1;stroke-width:0;stroke-linejoin:round;stroke-miterlimit:4;stroke-dasharray:none"
         d="m 20.469827,50.189189 -2.408464,-1.05669 0.01628,-9.899495 c 0.009,-5.444722 0.05139,-13.122438 0.0943,-17.061592 l 0.07801,-7.162097 11.229951,6.409137 11.229952,6.409137 -2.169323,1.29936 c -1.193128,0.714649 -2.254666,1.298188 -2.358976,1.296753 -0.104309,-0.0014 -3.053435,-1.669768 -6.553613,-3.707406 -3.500179,-2.037638 -6.407352,-3.681894 -6.460385,-3.653902 -0.05303,0.02799 -0.09642,6.382514 -0.09642,14.12116 0,7.738646 -0.04339,14.068478 -0.09642,14.066295 -0.05303,-0.0022 -1.180233,-0.47948 -2.504888,-1.06066 z"
         id="path4370" />
      <path
         style="fill:#1a1a1a;fill-opacity:1;stroke-width:0;stroke-linejoin:round;stroke-miterlimit:4;stroke-dasharray:none"
         d="m 24.228222,38.055899 c 0,-7.245179 0.04339,-13.148615 0.09642,-13.118747 0.05303,0.02987 1.277279,0.737603 2.720546,1.572744 l 2.624123,1.51844 -0.0877,7.209395 c -0.04824,3.965167 -0.122147,7.339567 -0.164245,7.498666 -0.0494,0.186706 -0.01947,0.289271 0.08442,0.289271 0.08853,0 1.78751,-0.947129 3.775518,-2.104731 C 45.118667,34.025802 53.293936,29.272893 53.5287,29.147251 l 0.269442,-0.144201 0,3.064662 0,3.064661 -7.231774,3.935991 C 42.588892,41.23316 35.93566,44.85489 31.781408,47.116653 l -7.553186,4.112298 0,-13.173052 z"
         id="path4372" />
    </g>
    <flowRoot
       transform="translate(-48.571429,205)"
       style="font-style:normal;font-weight:normal;font-size:40px;line-height:125%;font-family:sans-serif;letter-spacing:0px;word-spacing:0px;fill:#000000;fill-opacity:1;stroke:none;stroke-width:1px;stroke-linecap:butt;stroke-linejoin:miter;stroke-opacity:1"
       id="flowRoot3356"
       xml:space="preserve"><flowRegion
         id="flowRegion3358"><rect
           y="132.3622"
           x="211.42857"
           height="101.42857"
           width="367.85715"
           id="rect3360" /></flowRegion><flowPara
         id="flowPara3362">Video Client</flowPara><flowPara
         style="font-size:25px"
         id="flowPara3364">全功能视频客户端</flowPara></flowRoot>  </g>
</svg>
