<?xml version="1.0" encoding="iso-8859-1"?>
<!-- Generator: Adobe Illustrator 18.1.1, SVG Export Plug-In . SVG Version: 6.00 Build 0)  -->
<svg xmlns="http://www.w3.org/2000/svg" xmlns:xlink="http://www.w3.org/1999/xlink" version="1.1" id="Capa_1" x="0px" y="0px" viewBox="0 0 25.974 25.974" style="enable-background:new 0 0 25.974 25.974;" xml:space="preserve" width="512px" height="512px">
<g>
	<path d="M8.973,11.146v9.558c0,0.425-0.268,0.803-0.668,0.943c-0.566,0.199-1.249,0.304-1.976,0.304l0,0   c-2.091,0-4.34-0.858-4.34-2.742V6.979c-0.047-0.84,0.246-2.324,1.653-3.127C4.295,3.479,7.724,1.274,9.446,0.16   c0.307-0.199,0.699-0.213,1.021-0.039C10.789,0.297,10.989,0.634,10.989,1v1.448c0,0.552-0.448,1-1,1   c-0.43,0-0.797-0.271-0.938-0.653c-1.556,1-3.848,2.468-4.417,2.793C4.122,5.881,4.011,6.419,3.989,6.711   c0,0.328,0.071,0.586,0.199,0.727c0.355,0.387,1.538,0.146,2.829-0.629c1.24-0.744,7.356-4.816,7.417-4.857   c0.309-0.205,0.703-0.224,1.026-0.049c0.326,0.174,0.529,0.513,0.529,0.882v0.114c0,0.334-0.167,0.646-0.444,0.832   c0,0-4.246,2.834-4.622,3.075C9.484,7.732,8.973,8.868,8.973,11.146z M23.989,6.32v12.982c0,0.343-0.177,0.663-0.468,0.846   c0,0-5.83,4.528-7.013,5.247c-0.622,0.379-1.414,0.579-2.289,0.579c-2.079,0-4.23-1.125-4.23-3.006V10.852v-0.293   c0-0.004,0.003-0.008,0.003-0.013c0.02-0.732,0.191-1.777,1.552-2.781c0.816-0.602,5.676-3.916,5.882-4.056   c0.307-0.208,0.704-0.23,1.03-0.058c0.328,0.173,0.533,0.513,0.533,0.884v1.448c0,0.552-0.447,1-1,1   c-0.413,0-0.768-0.25-0.92-0.608c-1.551,1.061-3.828,2.624-4.338,2.999c-0.644,0.476-0.73,0.79-0.741,1.193   c0.002,0.299,0.083,0.527,0.247,0.677c0.51,0.467,1.883,0.271,3.237-0.541c1.002-0.602,5.32-3.936,6.898-5.17   c0.303-0.234,0.711-0.277,1.055-0.11S23.989,5.937,23.989,6.32z M21.989,10.776l-5,3.879v2l5-3.879V10.776z" fill="#02547d"/>
</g>
<g>
</g>
<g>
</g>
<g>
</g>
<g>
</g>
<g>
</g>
<g>
</g>
<g>
</g>
<g>
</g>
<g>
</g>
<g>
</g>
<g>
</g>
<g>
</g>
<g>
</g>
<g>
</g>
<g>
</g>
</svg>
